<?xml version="1.0" encoding="utf-8"?>
<!-- Generator: Adobe Illustrator 19.0.0, SVG Export Plug-In . SVG Version: 6.00 Build 0)  -->
<svg version="1.1" id="Layer_1" xmlns="http://www.w3.org/2000/svg" xmlns:xlink="http://www.w3.org/1999/xlink" x="0px" y="0px"
	 viewBox="0 0 841.9 595.3" style="enable-background:new 0 0 841.9 595.3;" xml:space="preserve">
<style type="text/css">
	.st0{fill:#2C9496;}
</style>
<g id="XMLID_80_">
	<g id="XMLID_428_">
		<path id="XMLID_429_" class="st0" d="M176,347.6c-22.6-0.5-43.6-11.5-52.6-32.7v84c0,3-1.6,4.9-4.6,4.9c-3,0-4.9-1.9-4.9-4.9V210
			c0-3,1.9-4.9,4.9-4.9c3,0,4.6,1.9,4.6,4.9v27c4.1-10.9,10.9-18.3,19.9-24.3c17.2-10.1,39-12.5,59.7-4.1c29.4,12,44.2,39,43.3,70.9
			c-0.8,27.5-15.5,52.9-41.4,63C195.9,346.3,186.4,347.9,176,347.6z M123.4,264v23.7c1.9,28.1,22.1,49.3,52.6,50.4
			c23.2,0.3,46.6-12,55.9-34.6c3-7.1,4.6-15.8,4.9-23.7c0.8-21-6.3-40.3-24-54.5c-9.5-7.4-21.3-11.4-33.5-12.3
			c-9.5-0.3-18.5,1.9-27.5,6C133.8,227.7,124.5,244.1,123.4,264z"/>
		<path id="XMLID_432_" class="st0" d="M344.2,204c11.7,0.3,22.9,3,32.7,8.7c9,6,15.8,14.4,19.9,25.4v-27.5c0-3,1.6-4.9,4.6-4.9
			c3,0,4.9,1.9,4.9,4.9v130.6c0,3-1.9,4.9-4.9,4.9c-3,0-4.6-1.9-4.6-4.9v-27.5c-4.1,10.9-10.9,19.4-19.9,25.4
			c-17.2,10.1-39,12.5-59.7,4.1c-29.4-12-44.2-39-43.3-70.9c0.8-27.5,15.5-52.9,41.4-63C324.3,205.4,333.8,203.7,344.2,204z
			 M396.8,287.7V264c-1.1-19.9-10.4-36.3-28.3-45c-7.9-3.5-15.8-5.2-24.3-5.5c-23.2-0.3-46.6,12-55.9,34.6c-3,7.1-4.6,15.8-4.9,23.7
			c-0.8,21,6.3,40.3,24,54.5c9.5,7.4,21.3,11.5,33.5,12.3c9.5,0.3,18.5-1.9,27.5-6C386.4,323.9,395.7,307.6,396.8,287.7z"/>
		<path id="XMLID_435_" class="st0" d="M493,214.9c-40.6,10.9-55.1,68.7-28.1,101.4c22.1,27.3,69.2,28.6,91.3,0
			c0.8-0.8,1.9-1.6,3.3-1.9c3-0.3,4.6,1.6,5.5,4.1c0,1.6-0.3,3-1.1,3.8c-26.2,32.7-80.1,31.9-106.3,0
			c-11.7-14.2-16.9-31.4-15.8-51.8c1.9-30.5,19.4-56.1,48.8-63.8c28.9-6,51.2-1.9,70.6,20.4c0.8,1.1,1.1,1.9,1.1,2.7
			c0.3,2.5-1.1,4.9-4.1,5.2c-1.9,0.3-3.3-0.3-4.4-1.6C537.4,214.1,516.2,209.7,493,214.9z"/>
		<path id="XMLID_437_" class="st0" d="M728,274.9c0.3,3.8-1.1,9-8.5,9H596.9c1.4,11.7,5.7,22.9,13.9,32.4
			c11.4,13.6,28.6,20.7,46.3,21c15,0.3,30.3-4.4,42.8-13.9c4.9-3.8,11.5,1.6,6.3,6.8c-12.3,11.4-30.3,16.6-48.2,16.4
			c-21.3-0.3-42.2-8.2-54.8-24.3c-11.4-14.7-17.4-31.6-16.4-52.1c1.4-29.4,20.4-55.9,49.9-64.1c12.5-3.3,27.5-3.5,41.2,0
			C708.3,214.4,727.4,239.7,728,274.9z M596.6,274.9h122.1c-0.5-30-16.6-52.6-43.9-60c-10.9-2.7-23.7-2.7-34.9,0.3
			C612.7,222.5,596.9,247.6,596.6,274.9z"/>
	</g>
</g>
</svg>
